<svg width="27" height="25" viewBox="0 0 27 25" fill="none" xmlns="http://www.w3.org/2000/svg">
<g id="Group 12">
<path id="Vector" d="M10.388 6.98363C14.5735 6.98363 17.8261 10.2496 17.8261 15.4702C17.8261 20.6908 14.5231 24.0063 10.388 24.0063C9.37879 24.0652 8.37106 23.8685 7.46154 23.4353C6.55201 23.002 5.7712 22.3466 5.19402 21.5321V23.8579H0V1.8125H5.1688V9.55683C5.73815 8.72205 6.51818 8.04625 7.43286 7.59529C8.34754 7.14434 9.36567 6.9336 10.388 6.98363ZM8.85 11.4125C8.32717 11.4199 7.81167 11.5342 7.33647 11.7483C6.86127 11.9624 6.43684 12.2714 6.09034 12.6557C5.74384 13.04 5.4829 13.491 5.32422 13.9799C5.16554 14.4688 5.1126 14.9848 5.1688 15.495C5.09285 16.0145 5.13159 16.5439 5.28238 17.0475C5.43318 17.551 5.69251 18.0168 6.04281 18.4134C6.39311 18.81 6.82618 19.1281 7.31269 19.3461C7.7992 19.564 8.32778 19.6769 8.86261 19.6769C9.39743 19.6769 9.92601 19.564 10.4125 19.3461C10.899 19.1281 11.3321 18.81 11.6824 18.4134C12.0327 18.0168 12.292 17.551 12.4428 17.0475C12.5936 16.5439 12.6324 16.0145 12.5564 15.495C12.6168 14.9821 12.5661 14.4624 12.4074 13.9701C12.2487 13.4778 11.9858 13.024 11.6357 12.6385C11.2857 12.2529 10.8566 11.9444 10.3765 11.7331C9.89638 11.5218 9.37617 11.4126 8.85 11.4125Z" fill="#3F0A74"/>
<path id="Vector_2" d="M20.5752 7.20703H25.744V23.7844H20.5752V7.20703Z" fill="#3F0A74"/>
<path id="Vector_3" d="M23.1713 5.4998C22.7917 5.51637 22.4126 5.45893 22.0557 5.33078C21.6989 5.20263 21.3715 5.00633 21.0925 4.75324C20.8135 4.50014 20.5884 4.19526 20.4302 3.85625C20.272 3.51723 20.1839 3.1508 20.1709 2.77815C20.1773 2.40128 20.2605 2.02949 20.4158 1.68474C20.5711 1.33998 20.7952 1.02926 21.0749 0.770933C21.3546 0.512604 21.6842 0.311907 22.0443 0.1807C22.4044 0.0494928 22.7876 -0.00956374 23.1713 0.00701967C23.56 -0.0200569 23.9502 0.0313805 24.3178 0.158152C24.6853 0.284924 25.0225 0.484335 25.3085 0.744059C25.5944 1.00378 25.823 1.3183 25.9802 1.66817C26.1374 2.01803 26.2197 2.39581 26.2222 2.77815C26.2129 3.15629 26.1256 3.52866 25.9654 3.87271C25.8053 4.21676 25.5756 4.52534 25.2904 4.77978C25.0052 5.03422 24.6703 5.22922 24.3061 5.35298C23.9419 5.47674 23.5558 5.52669 23.1713 5.4998Z" fill="#EF7D35"/>
</g>
</svg>
