<svg width="59" height="24" fill="none" xmlns="http://www.w3.org/2000/svg"><g clip-path="url(#a)"><path d="M2.068 11.43H0V7.2h2.068V3.167h5.168V7.2h3.379v4.23H7.236v6.632c0 .99.404 1.41 1.564 1.41h1.84v4.305H8.12a5.314 5.314 0 0 1-2.427-.155A5.241 5.241 0 0 1 3.6 22.404a5.11 5.11 0 0 1-1.303-2.015 5.031 5.031 0 0 1-.23-2.377v-6.581ZM21.205 24a8.411 8.411 0 0 1-3.363-.555 8.285 8.285 0 0 1-2.849-1.84 8.1 8.1 0 0 1-1.85-2.811 7.978 7.978 0 0 1-.536-3.305 8.027 8.027 0 0 1 .556-3.309 8.152 8.152 0 0 1 1.864-2.81 8.338 8.338 0 0 1 2.859-1.837 8.464 8.464 0 0 1 3.37-.556 8.465 8.465 0 0 1 3.408.517 8.34 8.34 0 0 1 2.902 1.829 8.153 8.153 0 0 1 1.898 2.827c.424 1.062.617 2.2.566 3.339a8.077 8.077 0 0 1-.586 3.342 8.206 8.206 0 0 1-1.912 2.826 8.392 8.392 0 0 1-2.912 1.826 8.514 8.514 0 0 1-3.415.517Zm0-4.38a3.763 3.763 0 0 0 1.505-.353 3.7 3.7 0 0 0 1.227-.926c.338-.39.588-.846.734-1.337a3.573 3.573 0 0 0 .114-1.515c0-2.82-1.715-4.132-3.53-4.132-1.815 0-3.605 1.311-3.605 4.132 0 2.82 1.689 4.132 3.555 4.132ZM43.165 6.977c4.186 0 7.438 3.266 7.438 8.486 0 5.221-3.303 8.537-7.438 8.537a5.996 5.996 0 0 1-2.926-.572 5.87 5.87 0 0 1-2.268-1.903v2.326h-5.194V1.806h5.17V9.55a5.891 5.891 0 0 1 2.263-1.962 6.02 6.02 0 0 1 2.955-.611Zm-1.538 4.429a3.815 3.815 0 0 0-1.513.335c-.475.215-.9.524-1.246.908a3.668 3.668 0 0 0-.766 1.324 3.62 3.62 0 0 0-.156 1.515 3.597 3.597 0 0 0 .114 1.553c.15.503.41.969.76 1.366.35.396.783.714 1.27.932a3.791 3.791 0 0 0 3.1 0c.486-.218.92-.536 1.27-.932.35-.397.61-.863.76-1.366.151-.504.19-1.033.114-1.553.06-.513.01-1.032-.15-1.525a3.645 3.645 0 0 0-.77-1.331 3.73 3.73 0 0 0-1.26-.906c-.48-.211-1-.32-1.527-.32ZM53.352 7.2h5.17v16.578h-5.17V7.2Z" fill="#3F0A74"/><path d="M55.949 5.493c-.38.017-.76-.04-1.116-.17a2.885 2.885 0 0 1-.963-.577 2.824 2.824 0 0 1-.662-.897 2.778 2.778 0 0 1-.26-1.078c.007-.377.09-.748.245-1.093a2.82 2.82 0 0 1 .66-.914c.279-.258.609-.459.969-.59.36-.131.743-.19 1.127-.174a2.9 2.9 0 0 1 1.146.151c.368.127.705.326.99.586.287.26.515.574.672.924.158.35.24.728.242 1.11-.009.378-.096.75-.256 1.095-.16.344-.39.653-.675.907a2.86 2.86 0 0 1-.985.573 2.9 2.9 0 0 1-1.134.147Z" fill="#EF7D35"/></g><defs><clipPath id="a"><path fill="#fff" d="M0 0h59v24H0z"/></clipPath></defs></svg>